<?xml version="1.0" standalone="no"?>
<!DOCTYPE svg PUBLIC "-//W3C//DTD SVG 20010904//EN"
 "http://www.w3.org/TR/2001/REC-SVG-20010904/DTD/svg10.dtd">
<svg version="1.0" xmlns="http://www.w3.org/2000/svg"
 width="700.000000pt" height="700.000000pt" viewBox="0 0 700.000000 700.000000"
 preserveAspectRatio="xMidYMid meet">
<metadata>
Created by potrace 1.14, written by Peter Selinger 2001-2017
</metadata>
<g transform="translate(0.000000,700.000000) scale(0.100000,-0.100000)"
fill="#000000" stroke="none">
<path d="M2854 5601 c4 -5 41 -28 84 -51 140 -75 247 -143 272 -173 13 -17 32
-53 41 -81 l17 -50 -49 -50 c-72 -72 -94 -124 -93 -216 0 -58 5 -85 23 -120
22 -42 23 -45 6 -55 -51 -29 -124 -97 -157 -145 -98 -146 -68 -351 75 -514
l25 -29 -21 -17 c-12 -10 -53 -34 -92 -55 -38 -20 -176 -98 -305 -173 -129
-74 -266 -153 -305 -175 -143 -83 -215 -180 -299 -400 -45 -119 -48 -147 -17
-147 12 0 38 44 88 149 112 232 117 236 484 421 164 83 299 147 299 143 0 -4
-15 -33 -33 -63 -85 -142 -155 -341 -188 -535 -33 -194 -30 -470 7 -660 2 -11
7 -36 10 -55 3 -19 15 -69 26 -110 108 -420 327 -817 625 -1130 48 -51 48 -49
29 -110 -18 -61 -11 -144 21 -241 28 -86 55 -129 80 -129 11 0 14 6 9 23 -4
12 -14 47 -22 77 -22 76 -25 177 -8 219 8 19 63 84 122 145 264 272 466 607
588 971 177 529 156 1046 -58 1470 -28 55 -55 106 -61 113 -5 7 -8 14 -6 16 2
3 132 -60 289 -139 197 -98 300 -156 334 -186 51 -45 122 -147 146 -209 23
-60 82 -175 94 -182 6 -4 17 -1 25 6 11 12 6 32 -28 127 -107 291 -138 322
-560 563 -172 98 -334 190 -360 203 -25 14 -60 34 -77 45 l-31 21 54 71 c78
104 97 159 97 281 0 90 -2 105 -27 153 -35 66 -95 133 -153 169 -29 18 -43 33
-40 43 3 8 12 35 21 60 37 98 -2 240 -83 311 -20 18 -34 40 -34 53 0 30 34
106 61 133 21 22 142 96 276 168 84 45 82 43 63 50 -17 7 -73 -16 -248 -101
-134 -66 -166 -92 -203 -174 -12 -25 -22 -47 -23 -48 -2 -2 -35 4 -75 14 -60
15 -84 16 -143 7 -39 -6 -78 -14 -88 -18 -12 -5 -22 6 -43 47 -48 97 -93 128
-343 237 -91 40 -129 50 -118 32z"/>
<path d="M1300 5159 c-30 -4 -84 -10 -119 -14 -36 -3 -68 -8 -72 -10 -4 -3
-22 -7 -40 -9 -274 -37 -772 -219 -1031 -378 l-37 -23 25 -50 c69 -136 179
-274 340 -425 345 -325 928 -596 1279 -594 251 2 561 107 923 314 109 62 298
174 323 191 l26 18 -33 67 c-64 132 -66 292 -5 417 l28 57 -50 31 c-280 172
-711 338 -1007 388 -36 6 -81 13 -100 17 -55 9 -389 11 -450 3z"/>
<path d="M5250 5154 c-41 -6 -94 -14 -118 -18 -24 -3 -47 -8 -51 -10 -4 -3
-23 -8 -42 -11 -71 -12 -218 -55 -344 -101 -70 -26 -85 -32 -185 -75 -83 -36
-293 -143 -359 -184 l-59 -37 18 -31 c73 -127 72 -322 -2 -463 l-26 -49 152
-88 c83 -49 176 -103 206 -121 257 -152 582 -277 790 -303 237 -30 510 36 852
208 383 192 731 502 881 783 43 82 55 67 -123 159 -337 175 -711 295 -1035
333 -33 3 -69 9 -80 11 -46 11 -404 9 -475 -3z"/>
</g>
</svg>
