<svg xmlns="http://www.w3.org/2000/svg" viewBox="0 0 100 100">

  <g fill="none" stroke="currentColor" stroke-width="3">
    <path d="M0,12.5A12.5,12.5,0,0,0,12.5,0" />
    <path d="M12.5,0A12.5,12.5,0,0,0,25,12.5,12.5,12.5,0,0,0,37.5,0" />
    <path d="M37.5,0A12.5,12.5,0,0,0,50,12.5,12.5,12.5,0,0,0,62.5,0" />
    <path d="M62.5,0A12.5,12.5,0,0,0,75,12.5,12.5,12.5,0,0,0,87.5,0" />
    <path d="M87.5,0A12.5,12.5,0,0,0,100,12.5" fill="none" />
    <path d="M0,37.5A12.5,12.5,0,0,0,12.5,25,12.5,12.5,0,0,0,0,12.5" />
    <circle cx="25" cy="25" r="12.5" />
    <circle cx="50" cy="25" r="12.5" />
    <circle cx="75" cy="25" r="12.5" />
    <path d="M100,37.5a12.5,12.5,0,0,1,0-25" />
    <path d="M0,62.5A12.5,12.5,0,0,0,12.5,50,12.5,12.5,0,0,0,0,37.5" />
    <circle cx="25" cy="50" r="12.5" />
    <circle cx="50" cy="50" r="12.5" />
    <circle cx="75" cy="50" r="12.5" />
    <path d="M100,62.5a12.5,12.5,0,0,1,0-25" />
    <path d="M0,87.5A12.5,12.5,0,0,0,12.5,75,12.5,12.5,0,0,0,0,62.5" />
    <circle cx="25" cy="75" r="12.5" />
    <circle cx="50" cy="75" r="12.5" />
    <circle cx="75" cy="75" r="12.5" />
    <path d="M100,87.5a12.5,12.5,0,0,1,0-25" />
    <path d="M0,87.5A12.5,12.5,0,0,1,12.5,100" />
    <path d="M12.5,100a12.5,12.5,0,0,1,25,0" />
    <path d="M37.5,100a12.5,12.5,0,0,1,25,0" />
    <path d="M62.5,100a12.5,12.5,0,0,1,25,0" />
    <path d="M87.5,100A12.5,12.5,0,0,1,100,87.5" />
  </g>
</svg>
