<?xml version="1.0" encoding="utf-8"?>
<!-- Generator: Adobe Illustrator 25.4.1, SVG Export Plug-In . SVG Version: 6.00 Build 0)  -->
<svg version="1.1" id="Layer_1" xmlns="http://www.w3.org/2000/svg" xmlns:xlink="http://www.w3.org/1999/xlink" x="0px" y="0px"
	 viewBox="0 0 100 100" style="enable-background:new 0 0 100 100;" xml:space="preserve">
<style type="text/css">
	.st0{fill:none;stroke:#000000;stroke-width:3;stroke-miterlimit:10;}
</style>
<path class="st0" d="M0,12.5c6.9,0,12.5-5.6,12.5-12.5"/>
<path class="st0" d="M12.5,0c0,6.9,5.6,12.5,12.5,12.5S37.5,6.9,37.5,0"/>
<path class="st0" d="M37.5,0c0,6.9,5.6,12.5,12.5,12.5S62.5,6.9,62.5,0"/>
<path class="st0" d="M62.5,0c0,6.9,5.6,12.5,12.5,12.5S87.5,6.9,87.5,0"/>
<path class="st0" d="M87.5,0c0,6.9,5.6,12.5,12.5,12.5"/>
<path class="st0" d="M0,37.5c6.9,0,12.5-5.6,12.5-12.5S6.9,12.5,0,12.5"/>
<circle class="st0" cx="25" cy="25" r="12.5"/>
<circle class="st0" cx="50" cy="25" r="12.5"/>
<circle class="st0" cx="75" cy="25" r="12.5"/>
<path class="st0" d="M100,37.5c-6.9,0-12.5-5.6-12.5-12.5s5.6-12.5,12.5-12.5"/>
<path class="st0" d="M0,62.5c6.9,0,12.5-5.6,12.5-12.5S6.9,37.5,0,37.5"/>
<circle class="st0" cx="25" cy="50" r="12.5"/>
<circle class="st0" cx="50" cy="50" r="12.5"/>
<circle class="st0" cx="75" cy="50" r="12.5"/>
<path class="st0" d="M100,62.5c-6.9,0-12.5-5.6-12.5-12.5s5.6-12.5,12.5-12.5"/>
<path class="st0" d="M0,87.5c6.9,0,12.5-5.6,12.5-12.5S6.9,62.5,0,62.5"/>
<circle class="st0" cx="25" cy="75" r="12.5"/>
<circle class="st0" cx="50" cy="75" r="12.5"/>
<circle class="st0" cx="75" cy="75" r="12.5"/>
<path class="st0" d="M100,87.5c-6.9,0-12.5-5.6-12.5-12.5s5.6-12.5,12.5-12.5"/>
<path class="st0" d="M0,87.5c6.9,0,12.5,5.6,12.5,12.5"/>
<path class="st0" d="M12.5,100c0-6.9,5.6-12.5,12.5-12.5s12.5,5.6,12.5,12.5"/>
<path class="st0" d="M37.5,100c0-6.9,5.6-12.5,12.5-12.5s12.5,5.6,12.5,12.5"/>
<path class="st0" d="M62.5,100c0-6.9,5.6-12.5,12.5-12.5s12.5,5.6,12.5,12.5"/>
<path class="st0" d="M87.5,100c0-6.9,5.6-12.5,12.5-12.5"/>
</svg>
