<svg xmlns="http://www.w3.org/2000/svg" viewBox="0 0 800 800"><rect width="800" height="800" fill="none"/><polygon points="611.11 455.59 580.25 455.59 564.82 482.32 580.25 509.04 611.11 509.04 626.54 482.32 611.11 455.59" fill="#e0a940"/><polygon points="301.98 450.73 196.93 450.73 144.41 541.59 196.93 632.45 301.98 632.45 354.5 541.59 301.98 450.73" fill="#e0a940"/><polygon points="511.99 268.71 354.5 268.71 275.76 405.1 354.5 541.48 511.99 541.48 590.73 405.1 511.99 268.71" fill="#e0b355" opacity="0.75"/><path d="M236.76,391.16H164.55l-36.11-62.53,36.11-62.54h72.21l36.1,62.54Zm-69-5.63h65.71l32.85-56.9-32.85-56.91H167.8l-32.86,56.91Z" fill="#e0a940"/><path d="M340.2,450.89H268l-36.11-62.54L268,325.81H340.2l36.11,62.54Zm-69-5.63H337l32.85-56.91L337,331.44H271.24l-32.86,56.91Z" fill="#e59f41"/><polygon points="517.75 438.67 446.14 438.67 410.33 500.69 446.14 562.7 517.75 562.7 553.55 500.69 517.75 438.67" fill="#e59f41"/><path d="M568.13,636.55H495.92L459.81,574l36.11-62.54h72.21L604.24,574Zm-69-5.63h65.71L597.74,574l-32.86-56.91H499.17L466.32,574Z" fill="#e0a940"/><path d="M605.44,392.49H473.2L407.08,278,473.2,163.45H605.44L671.56,278Zm-129-5.63H602.19L665.06,278,602.19,169.08H476.45L413.58,278Z" fill="#e0a940"/><path d="M607,529c22.66,35.67,44.48,81.58,27,112-19.83,34.5-76,24.28-168,35-170,19.81-206.21,81.21-270,57C101.34,697.07,41.34,550.62,81,485c25.19-41.67,73.09-21.56,131-76,48.21-45.32,36-79,80-154,58.27-99.38,156.42-171.07,186-153,27.5,16.8-13,105.85,28,133,12.73,8.43,37.31,13.53,45,4a30.73,30.73,0,0,0,7-20" fill="none"/></svg>