<svg xmlns="http://www.w3.org/2000/svg" viewBox="0 0 1200 820">
  <g fill="currentColor">
    <path
      d="M694.36 182.06a61.13 61.13 0 00-6.89-16.33c-6-10.11-14.59-18.18-24-24.51a104.19 104.19 0 00-30.58-13.78 120.08 120.08 0 00-16.34-3.32 125.8 125.8 0 00-33.2 0 120.08 120.08 0 00-16.34 3.32 104.19 104.19 0 00-30.58 13.78c-9.36 6.33-17.91 14.4-24 24.51a61.13 61.13 0 00-6.89 16.33 59.81 59.81 0 00-1.75 17.82A76.85 76.85 0 00514 233.36 99.17 99.17 0 00536.06 260 104 104 0 00600 284.49 104 104 0 00663.94 260 99.17 99.17 0 00686 233.36a76.85 76.85 0 0010.09-33.48 59.81 59.81 0 00-1.73-17.82zm-10 17a64 64 0 01-9.6 27.57 81.24 81.24 0 01-19.89 21.92 85.92 85.92 0 01-26.06 13.62A84.7 84.7 0 01600 266a84.7 84.7 0 01-28.81-3.85 85.92 85.92 0 01-26.06-13.62 81.24 81.24 0 01-19.89-21.92 64 64 0 01-9.6-27.57 47.53 47.53 0 016.17-27.85 60.76 60.76 0 018.8-11.92 71.16 71.16 0 0111.39-9.8 94.43 94.43 0 0127.54-13 112.15 112.15 0 0160.88 0 94.43 94.43 0 0127.54 13 71.16 71.16 0 0111.41 9.84 60.76 60.76 0 018.8 11.92 47.53 47.53 0 016.19 27.85zM1200 151.73l-4.55 9.89-.35.71-.29.58-.59 1.09-1.16 2.09c-.77 1.38-1.56 2.71-2.35 4-1.59 2.64-3.23 5.2-4.91 7.71q-5 7.51-10.53 14.6a319.39 319.39 0 01-23.35 26.88 381.71 381.71 0 01-53.67 45.72 443.89 443.89 0 01-60.25 35.54q-15.68 7.66-31.8 14.19c-2.69 1.1-5.4 2.13-8.09 3.21L990 321c-2.74 1-5.43 2-8.21 2.92s-5.58 1.87-8.4 2.72a206.37 206.37 0 01-34.57 7.5 182.87 182.87 0 01-35.39 1.07 202 202 0 01-34.77-5.51 268.84 268.84 0 01-33.21-10.7c-21.59-8.48-42.1-19-62.15-30.16s-39.66-22.94-59.23-34.74a3 3 0 01-1-4.13 3 3 0 014-1.09c19.93 11.12 39.86 22.21 60.09 32.59s40.77 20.06 61.94 27.53a255.62 255.62 0 0032.17 9.2 190.49 190.49 0 0032.84 4.09 179.92 179.92 0 0064.73-10.16q3.92-1.33 7.79-2.82c2.59-1 5.22-2.06 7.82-3.08l7.8-3.23c2.57-1.11 5.16-2.2 7.72-3.35q15.39-6.84 30.27-14.7a426 426 0 0056.57-35.95 362.07 362.07 0 0049.33-44.83 298.7 298.7 0 0020.9-25.67c3.23-4.45 6.29-9 9.16-13.6q1.29-2.08 2.51-4.17l-3.48-2.05q-6.7-3.9-13.58-7.55c-9.16-4.9-18.52-9.48-28-13.8a549.76 549.76 0 00-58.32-22.7c-9.92-3.23-19.93-6.21-30-8.85-5-1.39-10.12-2.55-15.2-3.81s-10.19-2.32-15.31-3.3c-10.24-2.12-20.56-3.8-30.9-5.3-5.18-.67-10.4-1.4-15.49-1.91s-10.28-.88-15.44-1.07a327.1 327.1 0 00-62.19 3.7 443.69 443.69 0 00-61.28 14 557.62 557.62 0 00-59.33 21.77q-14.53 6.3-28.74 13.36c-9.44 4.73-18.85 9.7-27.84 15.06a2.78 2.78 0 01-3.82-1 2.83 2.83 0 01.89-3.79c9.09-5.88 18.32-11.19 27.72-16.35s18.94-10 28.6-14.59a565.69 565.69 0 0159.47-24.34 455.54 455.54 0 0162.29-16.67 340.16 340.16 0 0164.6-6.22c5.44 0 10.89.22 16.35.52s10.8.91 16.17 1.41c10.72 1.15 21.43 2.51 32.06 4.32 5.33.81 10.62 1.88 15.93 2.84s10.58 2.12 15.83 3.36q15.8 3.54 31.38 8a572.21 572.21 0 0161.25 21.36c10 4.15 19.93 8.57 29.71 13.36q7.33 3.57 14.59 7.44 3.62 1.94 7.23 4l3.61 2.07 1.82 1.08 1.94 1.18z" />
    <path
      d="M999.77 120.8L936 196.2a7 7 0 00-1.24 6.91q1.07 2.91 2.18 5.81c2 5.16 4 10.28 6.08 15.38 4.16 10.22 8.54 20.31 13.06 30.34s9.19 20 14 29.89c2.44 4.92 4.8 9.88 7.29 14.78l3.7 7.37.93 1.84a3.55 3.55 0 001.46 1.58 7.33 7.33 0 002.9.86l1 .1h1.14a19.43 19.43 0 002.78-.24l-21.56 10.68a20.34 20.34 0 001.89-2.09l.69-.92.51-.82a7.34 7.34 0 001.09-2.84 3.56 3.56 0 00-.34-2.14l-.88-1.86-3.52-7.46c-2.3-5-4.75-9.91-7.14-14.86-4.84-9.87-9.76-19.7-14.89-29.43s-10.34-19.41-15.8-29c-2.74-4.78-5.5-9.54-8.35-14.27q-2.76-4.62-5.68-9.19l-211.48-8.8a2.2 2.2 0 010-4.39l191-4.6a60 60 0 0038.89-15.56l61.08-55.45a2.08 2.08 0 013 .16 2.14 2.14 0 01-.02 2.82zM199.93 120.8l63.76 75.4a7 7 0 011.24 6.91q-1.06 2.91-2.19 5.81c-1.95 5.16-4 10.28-6.08 15.38q-6.24 15.33-13.05 30.34c-4.49 10-9.19 20-14 29.89-2.44 4.92-4.8 9.88-7.29 14.78l-3.71 7.37-.92 1.84a3.55 3.55 0 01-1.46 1.58 7.33 7.33 0 01-2.91.86l-1 .1h-1.14a19.56 19.56 0 01-2.79-.24L230 321.5a19.24 19.24 0 01-1.89-2.09l-.7-.92-.5-.82a7.19 7.19 0 01-1.09-2.84 3.56 3.56 0 01.34-2.14l.87-1.86 3.52-7.46c2.31-5 4.76-9.91 7.14-14.86 4.85-9.87 9.77-19.7 14.89-29.43s10.35-19.41 15.81-29c2.73-4.78 5.5-9.54 8.35-14.27q2.76-4.62 5.68-9.19l211.48-8.8a2.2 2.2 0 000-4.39l-191-4.6A60 60 0 01264 173.3l-61.08-55.45a2.08 2.08 0 00-3 .16 2.14 2.14 0 00.01 2.79z" />
    <path
      d="M0 151.73l4.55 9.89.35.71.29.58.6 1.09L7 166.09c.77 1.38 1.56 2.71 2.35 4 1.59 2.64 3.23 5.2 4.91 7.71q5 7.51 10.53 14.6a319.39 319.39 0 0023.35 26.88A381.71 381.71 0 00101.75 265 443.89 443.89 0 00162 300.54q15.67 7.66 31.8 14.19c2.69 1.1 5.4 2.13 8.09 3.21L210 321c2.74 1 5.43 2 8.21 2.92s5.58 1.87 8.4 2.72a206.37 206.37 0 0034.57 7.5 182.87 182.87 0 0035.39 1.07 202 202 0 0034.77-5.51 268.84 268.84 0 0033.21-10.7c21.59-8.48 42.1-19 62.15-30.16s39.66-22.94 59.23-34.74a3 3 0 001-4.13 3 3 0 00-4-1.09C463 260 443.07 271.09 422.84 281.47S382.07 301.53 360.9 309a255.62 255.62 0 01-32.17 9.2 190.49 190.49 0 01-32.84 4.09 179.92 179.92 0 01-64.73-10.16q-3.91-1.33-7.79-2.82c-2.59-1-5.22-2.06-7.82-3.08l-7.8-3.23c-2.57-1.11-5.16-2.2-7.72-3.35q-15.39-6.84-30.27-14.7A426 426 0 01113.19 249a362.07 362.07 0 01-49.33-44.83A298.7 298.7 0 0143 178.51c-3.23-4.45-6.29-9-9.16-13.6q-1.29-2.08-2.51-4.17l3.48-2.05q6.7-3.9 13.58-7.55c9.16-4.9 18.52-9.48 28-13.8a549.76 549.76 0 0158.32-22.7c9.92-3.23 19.93-6.21 30.05-8.85 5-1.39 10.12-2.55 15.2-3.81s10.19-2.32 15.31-3.3c10.24-2.12 20.56-3.8 30.9-5.3 5.18-.67 10.4-1.4 15.49-1.91s10.28-.88 15.44-1.07a327.1 327.1 0 0162.19 3.7 443.69 443.69 0 0161.28 14 557.62 557.62 0 0159.33 21.77q14.53 6.3 28.74 13.36c9.44 4.73 18.85 9.7 27.84 15.06h.05a2.78 2.78 0 003.82-1 2.83 2.83 0 00-.89-3.79c-9.09-5.88-18.32-11.19-27.72-16.35s-18.94-10-28.6-14.59a565.69 565.69 0 00-59.47-24.34 455.54 455.54 0 00-62.29-16.67 340.16 340.16 0 00-64.6-6.22c-5.44 0-10.89.22-16.35.52s-10.8.91-16.17 1.41c-10.72 1.15-21.43 2.51-32.06 4.32-5.33.81-10.62 1.88-15.93 2.84s-10.58 2.12-15.83 3.36q-15.79 3.54-31.38 8a572.21 572.21 0 00-61.25 21.36c-10 4.15-19.93 8.57-29.71 13.36q-7.34 3.57-14.59 7.44-3.62 1.94-7.23 4l-3.61 2.07-1.82 1.08-1.94 1.18zM468 385.75a359.67 359.67 0 0165.68-15.55 478.47 478.47 0 01132.66.1A367.55 367.55 0 01732 385.81l-7.82 18.42A193.63 193.63 0 00695 391.85c-1.26-.43-2.53-.84-3.79-1.25l-3.83-1.15c-2.55-.79-5.12-1.49-7.7-2.18s-5.18-1.33-7.79-1.93-5.22-1.17-7.85-1.71a329.61 329.61 0 00-128.12 0c-2.63.54-5.25 1.07-7.85 1.7s-5.21 1.19-7.78 1.93l-3.86 1.05c-1.29.36-2.56.76-3.84 1.14l-3.82 1.15-3.77 1.24a188.84 188.84 0 00-29.06 12.45zM523.82 643.86c12.34-2.16 24.8-5.18 37.48-7.44a194 194 0 0177.4 0c12.66 2.28 25.12 5.27 37.43 7.3l-4.73 17.48a304.62 304.62 0 00-35.44-12 131 131 0 00-72-.12 280.6 280.6 0 00-35.33 12.05zM471.78 510c21.26-4.55 42.46-8.62 63.84-11.32a504 504 0 0164.38-4.32 509.53 509.53 0 0164.36 4.29c21.37 2.69 42.57 6.72 63.83 11.19l-6 19.92A320.56 320.56 0 00662.23 512a327.82 327.82 0 00-62.25-6.1 324.44 324.44 0 00-62.24 6.1 315.91 315.91 0 00-59.87 18z" />
    <path
      d="M351.47 421.87a4.2 4.2 0 005.29-2.16l11.76-25.18 5.89-12.59 1.41-3c.45-1 1-1.89 1.47-2.84 1-1.87 2.13-3.67 3.3-5.45A81.61 81.61 0 01398 352.1c1.69-1.32 3.42-2.57 5.19-3.78.89-.57 1.8-1.21 2.65-1.73l1.27-.78.62-.38.32-.2.38-.2 12.32-6.19 84.12-42.23q-1 1.53-2 3.09a245.68 245.68 0 00-16.07 28.91 273.45 273.45 0 00-20.66 62.8 297.34 297.34 0 00-4.7 32.8 327 327 0 00-1.1 33.12 362.68 362.68 0 007.47 65.67c2.22 10.78 4.86 21.49 7.94 32 .76 2.63 1.5 5.28 2.3 7.91l2.49 7.85 1.26 3.92 1.36 3.89 2.7 7.78c3.82 10.3 7.84 20.54 12.35 30.57s9.28 19.95 14.52 29.63a420.87 420.87 0 0035.65 55.6q10 13.17 21.23 25.47c3.75 4.07 7.6 8.08 11.59 12 2 1.94 4 3.87 6.12 5.77 1 1 2.11 1.89 3.19 2.83l1.66 1.42c.57.48 1.08.91 1.82 1.5L606.14 735l-1.31-1-1.43-1.17c-1-.81-1.93-1.63-2.88-2.47a212.27 212.27 0 01-5.71-5.19 253.57 253.57 0 01-11-11q-10.81-11.35-20.62-23.73A403.34 403.34 0 01528.1 638c-5.2-9.19-10-18.63-14.5-28.19s-8.57-19.36-12.46-29.21l-2.76-7.46-1.38-3.76-1.28-3.77-2.56-7.53c-.82-2.52-1.58-5.07-2.37-7.6q-4.76-15.19-8.21-30.71a346.87 346.87 0 01-8.33-62.77 315.73 315.73 0 01.47-31.68 285.92 285.92 0 013.91-31.42 260.68 260.68 0 0118.61-60.32 234.91 234.91 0 0114.82-27.86q4.17-6.71 8.83-13c1.55-2.09 3.15-4.16 4.79-6.18.81-1 1.65-2 2.49-3l1.27-1.43c.41-.46.87-1 1.21-1.3l-1.34-.7a51.43 51.43 0 01-12.69-9.27c-2.44-2.47-3.72-2.91-7.1-1.21-.17.09-.38.2-.54.3l-96 55.22L401 332l-.38.21-.41.28-.82.56-1.62 1.12c-1.07.75-2 1.48-3 2.22a96.9 96.9 0 00-5.73 4.71A95 95 0 00370 363.87c-1.25 2.17-2.45 4.36-3.52 6.62-.52 1.15-1.08 2.27-1.53 3.44l-.72 1.73c-.25.58-.42 1.1-.63 1.65l-4.85 13-9.75 26.08a4.27 4.27 0 002.47 5.48z" />
    <path
      d="M848.53 421.87a4.2 4.2 0 01-5.29-2.16l-11.76-25.18-5.89-12.59-1.41-3c-.45-1-1-1.89-1.47-2.84-1-1.87-2.13-3.67-3.3-5.45A81.61 81.61 0 00802 352.1c-1.69-1.32-3.42-2.57-5.19-3.78-.89-.57-1.8-1.21-2.65-1.73l-1.27-.78-.62-.38-.32-.2-.38-.2-12.32-6.19-84.12-42.23q1 1.53 2 3.09a245.68 245.68 0 0116.07 28.91 273.45 273.45 0 0120.66 62.8 297.34 297.34 0 014.7 32.8 327 327 0 011.1 33.12 362.68 362.68 0 01-7.47 65.67c-2.22 10.78-4.86 21.49-7.94 32-.76 2.63-1.5 5.28-2.3 7.91l-2.49 7.85-1.26 3.92-1.36 3.89-2.7 7.78c-3.82 10.3-7.84 20.54-12.35 30.57s-9.28 19.95-14.52 29.63a420.87 420.87 0 01-35.65 55.6q-10 13.17-21.23 25.47c-3.75 4.07-7.6 8.08-11.59 12-2 1.94-4 3.87-6.12 5.77-1 1-2.11 1.89-3.19 2.83l-1.66 1.42-1.34 1.22a20.16 20.16 0 00-2.32 2.56c-.56.75-1.1 1.5-1.64 2.25A69.31 69.31 0 00598 763a31.32 31.32 0 00-1.59 3.47c-.22.55-.37 1.06-.51 1.5-.12.62-.22 1.41-.32 2.11a63.74 63.74 0 00-.49 8.9 91.25 91.25 0 002.22 18.35c.66 3.06 1.48 6.11 2.41 9.13s2 6.06 3.17 8.83v.09a3.41 3.41 0 01-1.42 4.19 3.22 3.22 0 01-4.32-1.17 101.83 101.83 0 01-4.81-9q-2.18-4.57-4-9.35a100.39 100.39 0 01-5.42-20 77.77 77.77 0 01-1-10.65v-2.78a28.72 28.72 0 01.28-3.33 44.65 44.65 0 011.23-5.87 84 84 0 013.72-10.35 117.956 117.956 0 013.4-7.24c.41-.8.79-1.53 1.32-2.47l.32-.56a9.89 9.89 0 014.28-4l.09-.07c1-.81 1.93-1.63 2.88-2.47 1.92-1.68 3.83-3.42 5.71-5.19 3.76-3.54 7.45-7.22 11-11q10.77-11.35 20.57-23.73A403.34 403.34 0 00671.9 638c5.2-9.19 10-18.63 14.5-28.19s8.57-19.36 12.46-29.21l2.76-7.46 1.38-3.73 1.28-3.77 2.56-7.53c.82-2.52 1.58-5.07 2.37-7.6q4.75-15.19 8.21-30.71a346.87 346.87 0 008.33-62.8 315.73 315.73 0 00-.47-31.68 285.92 285.92 0 00-3.91-31.42 260.68 260.68 0 00-18.61-60.32 234.91 234.91 0 00-14.82-27.86q-4.17-6.71-8.83-13c-1.55-2.09-3.15-4.16-4.79-6.18-.81-1-1.65-2-2.49-3l-1.27-1.43c-.41-.46-.87-1-1.21-1.3l1.34-.7a51.43 51.43 0 0012.69-9.27c2.44-2.47 3.72-2.91 7.1-1.21.17.09.38.2.54.3l96 55.22 12 6.9.38.21.41.28.82.56 1.62 1.12c1.07.75 2 1.48 3 2.22a96.9 96.9 0 015.73 4.71A95 95 0 01830 363.87c1.25 2.17 2.45 4.36 3.52 6.62.52 1.15 1.08 2.27 1.53 3.44l.72 1.73c.25.58.42 1.1.63 1.65l4.85 13 9.7 26.05a4.27 4.27 0 01-2.42 5.51zM709.56 3.4C702 7.19 694.46 11.17 687 15.26s-14.77 8.34-22 12.76l-5.37 3.35-2.65 1.72-1.32.86c-.21.14-.46.29-.64.42l-.55.4a29.29 29.29 0 00-7.43 8 46.8 46.8 0 00-4.91 10.34 60.76 60.76 0 00-1.6 5.61q-.35 1.42-.6 2.85l-.23 1.4-.1.68c0 .21-.06.48-.06.57a6.42 6.42 0 11-12.83-.3 6.64 6.64 0 01.1-1l.11-.6c.08-.45.14-.7.21-1l.21-.9.46-1.73c.32-1.15.66-2.27 1-3.38a70.15 70.15 0 012.54-6.54 57.74 57.74 0 017.26-12.19 39.1 39.1 0 0110.88-9.66l.8-.47.73-.39 1.43-.75 2.86-1.51 5.76-2.92c7.7-3.82 15.48-7.41 23.3-10.86s15.7-6.74 23.67-9.87a1.76 1.76 0 012.29 1 1.8 1.8 0 01-.86 2.25zM491.86.12c8 3.13 15.83 6.43 23.66 9.87s15.6 7 23.3 10.86l5.76 2.92 2.86 1.51 1.43.75c.25.13.47.24.73.39l.8.47a39.29 39.29 0 0110.89 9.66 57.27 57.27 0 017.25 12.19q1.46 3.26 2.55 6.54c.37 1.11.71 2.23 1 3.38l.46 1.73.21.9c.07.32.13.57.21 1l.11.57a6.48 6.48 0 01-5.08 7.57 6.42 6.42 0 01-7.48-5.19 7.2 7.2 0 01-.11-1c0-.09 0-.36-.06-.57l-.1-.68-.23-1.4c-.17-1-.37-1.9-.59-2.85-.44-1.89-1-3.77-1.61-5.61a46.77 46.77 0 00-4.9-10.34 29.47 29.47 0 00-7.44-8l-.54-.4-.65-.42-1.32-.86-2.65-1.72-5.39-3.39c-7.2-4.42-14.54-8.65-22-12.76S498 7.19 490.45 3.4a1.78 1.78 0 01-.8-2.39 1.77 1.77 0 012.21-.89z" />
    <path
      d="M663.49 111.18a49.05 49.05 0 01-4.29 16.42 87.71 87.71 0 01-7.82 14.15l-12.39-10a73.09 73.09 0 008.27-10.49 37.5 37.5 0 005.17-11.4 9.83 9.83 0 00.31-2.89c0-1.07-.1-2.15-.17-3.22a40.63 40.63 0 00-1.21-6.35 43.09 43.09 0 00-5.44-12 52.84 52.84 0 00-19.8-17.76 58.78 58.78 0 00-12.64-4.83 49.14 49.14 0 00-26.89.27 58 58 0 00-12.46 5.06A52 52 0 00555 86.08a42.23 42.23 0 00-5 11.71 40.7 40.7 0 00-1 6.15c0 1-.12 2.06-.08 3.09V108.44q0 .6.15 1.26a35.66 35.66 0 004.37 11.22 71.17 71.17 0 007.56 10.84l-12.39 10a87.22 87.22 0 01-8.47-13.8 61.62 61.62 0 01-3.19-7.79 40 40 0 01-1.9-8.8c-.08-.8-.13-1.61-.14-2.42v-1.21l.06-1.09c0-1.43.22-2.86.4-4.27a53 53 0 011.9-8.33 54.77 54.77 0 017.48-14.89A63.38 63.38 0 01569.4 58.7a68.1 68.1 0 0115-5 81 81 0 0131.18.27 67.44 67.44 0 0114.8 5.26 62.71 62.71 0 0123.95 20.58 53.5 53.5 0 017.07 14.67 51.26 51.26 0 011.72 8.09c.15 1.39.3 2.77.33 4.16l.08 2.19c.01.74-.01 1.5-.04 2.26z" />
  </g>
</svg>
