<svg xmlns="http://www.w3.org/2000/svg" viewBox="0 0 146.39 100">
  <g fill="currentColor">
    <path
      d="M146.39,18.51c-.19.45-.61,1.36-.84,1.76-5.34,8.81-14.34,14.85-23.78,18.52-9.87,4.31-18.57,1.55-27.44-3.55-2.44-1.36-4.83-2.8-7.22-4.24a.37.37,0,0,1,.37-.63c9.38,5.18,20.23,11.93,31.19,7.54a128.57,128.57,0,0,0-6.76-12.7l-25.8-1.07c-.32,0-.35-.53,0-.53l23.29-.56a7.24,7.24,0,0,0,4.74-1.91l7.46-6.75c.22-.22.57.12.37.35l-7.79,9.2a.88.88,0,0,0-.15.84,123.87,123.87,0,0,0,5.7,12.73c9.06-3.62,17.69-9.46,22.84-17.9A64.22,64.22,0,0,0,115,11c-10.25-.29-20.36,3.3-29.21,8.28h0a.35.35,0,0,1-.47-.12.35.35,0,0,1,.11-.46A68.42,68.42,0,0,1,99.59,12a46.25,46.25,0,0,1,27.23-1.27A64.45,64.45,0,0,1,146.39,18.51Z" />
    <path
      d="M61,19.2a.34.34,0,0,1-.46.12c-1.09-.66-2.26-1.26-3.41-1.84a62.9,62.9,0,0,0-18.22-6c-12-1.81-24.71,2.26-35.12,8.12C9,28,17.58,33.88,26.63,37.5a125.83,125.83,0,0,0,5.69-12.72.88.88,0,0,0-.15-.84l-7.79-9.2c-.19-.22.14-.58.37-.35l7.46,6.75A7.26,7.26,0,0,0,37,23.05l23.29.56a.27.27,0,0,1,0,.53l-25.8,1.07A122.15,122.15,0,0,0,27.71,37.9c10.95,4.41,21.81-2.35,31.21-7.53.38-.24.77.41.36.63C51,35.87,42,42.06,31.85,40.77,20.25,38.9,5,29.44,0,18.51,10.84,11.91,26.58,7.45,39.2,10a64.51,64.51,0,0,1,18.35,6.79c1.14.63,2.26,1.28,3.37,2A.33.33,0,0,1,61,19.2Z" />
    <path
      d="M103.81,50.8C102.12,46,101,42,96,39.66L84.3,32.93c-1-.52-1.63,1.12-2.64,1.33a28.1,28.1,0,0,1,6,12.31,54.18,54.18,0,0,0-29,0,28.23,28.23,0,0,1,6-12.29c-1-.21-1.61-1.84-2.65-1.33L50.37,39.66c-5,2.41-6.08,6.33-7.8,11.14a.52.52,0,0,0,1,.41L45,48.13a11.31,11.31,0,0,1,4.78-6c.73-.35,10.82-5.43,11.85-6C50.41,53.47,57.82,77.45,71.71,91a7.91,7.91,0,0,0,.07,6.61c.43.73.62,2.43,1.6,2.39a.42.42,0,0,0,.17-.51,10.55,10.55,0,0,1-.8-6,9.09,9.09,0,0,1,2.74-3.27c13.26-13.69,20.33-37.07,9.31-54,1.09.54,11.08,5.58,11.85,6a11.4,11.4,0,0,1,4.78,6l1.43,3.08A.52.52,0,0,0,103.81,50.8ZM77.69,84.24a38.63,38.63,0,0,1-4.49,4.81,42.13,42.13,0,0,1-7.39-8.9,18.73,18.73,0,0,1,14.76,0A46.79,46.79,0,0,1,77.69,84.24Zm8.83-17.08a54,54,0,0,1-4.87,11.23,32.16,32.16,0,0,0-16.89,0A52.94,52.94,0,0,1,59.1,64.34a39.71,39.71,0,0,1,28.2,0C87.07,65.26,86.81,66.22,86.52,67.16Zm2-11.41A39.89,39.89,0,0,1,87.81,62a65.6,65.6,0,0,0-29.24,0,38.72,38.72,0,0,1-.38-12.75,36,36,0,0,1,30,0A34.44,34.44,0,0,1,88.53,55.75Z" />
    <path
      d="M78,7.77A5.06,5.06,0,0,1,80.15,4l1-.62c1.76-1.07,3.59-2.08,5.43-3A.22.22,0,0,0,86.39,0C84.2.88,82.06,1.84,80,2.9a6.19,6.19,0,0,0-3.33,4.19A8.85,8.85,0,0,0,69.75,7,6.14,6.14,0,0,0,66.44,2.9C64.34,1.84,62.18.88,60,0c-.24-.08-.42.29-.17.41,1.85.92,3.65,1.93,5.43,3l1,.62a5.06,5.06,0,0,1,2.11,3.73.06.06,0,0,1,0,0c-3,2-4.13,5.75-1.89,8.81-10.29,5.46-2.95,18.05,6.73,18.09s17-12.65,6.69-18.1A6.3,6.3,0,0,0,78,7.9S78,7.82,78,7.77Zm2.23,10.47c6.2,4.13,2.52,11.91-3.56,13.75A11.5,11.5,0,0,1,66.5,30.33c-2.81-2.1-4.78-6.15-2.84-9.44C67,15.47,75.29,14.8,80.27,18.24ZM78.8,10.43a4.53,4.53,0,0,1,.79,3,6.14,6.14,0,0,1-1.43,2.44,15.13,15.13,0,0,0-9.92,0A5.88,5.88,0,0,1,67,13.24a4.8,4.8,0,0,1,.76-2.73C70.06,6.56,76.37,6.54,78.8,10.43Z" />
  </g>
</svg>
