<svg xmlns="http://www.w3.org/2000/svg" viewBox="0 0 146.39 100">
  <g fill="currentColor">
    <path
      d="M102.86,51.21l-1.43-3.08a11.4,11.4,0,0,0-4.78-6c-.77-.37-10.76-5.41-11.85-6,11,17,4,40.36-9.31,54.05a9.09,9.09,0,0,0-2.74,3.27,10.55,10.55,0,0,0,.8,6,.42.42,0,0,1-.17.51c-1,0-1.17-1.66-1.6-2.39A7.91,7.91,0,0,1,71.71,91C57.82,77.45,50.41,53.47,61.59,36.19c-1,.52-11.12,5.6-11.85,6a11.31,11.31,0,0,0-4.78,6l-1.44,3.08a.52.52,0,0,1-1-.41c1.72-4.81,2.82-8.73,7.8-11.14l11.72-6.73.19-.07a11.18,11.18,0,0,0,2.61-1.62c-4.3-4.14-5.29-11,1.58-14.62-2.24-3.06-1.11-6.78,1.89-8.81a.06.06,0,0,0,0,0A5.09,5.09,0,0,0,66.24,4l-1-.62c-1.78-1.07-3.58-2.08-5.43-3C59.58.3,59.76-.07,60,0c2.18.87,4.34,1.83,6.44,2.89A6.14,6.14,0,0,1,69.75,7a8.85,8.85,0,0,1,6.87.06A6.19,6.19,0,0,1,80,2.9C82.06,1.84,84.2.88,86.39,0a.22.22,0,0,1,.17.41c-1.84.92-3.67,1.93-5.43,3l-1,.62A5.06,5.06,0,0,0,78,7.77c0,.05,0,.09,0,.13a6.3,6.3,0,0,1,1.87,8.71c6.91,3.64,5.92,10.48,1.61,14.63a10.92,10.92,0,0,0,2.61,1.61h0l.19.08h0L96,39.66c5,2.38,6.11,6.34,7.8,11.14A.52.52,0,0,1,102.86,51.21Z" />
    <path
      d="M61,30c-8.31,4.87-19.11,12.05-29.18,10.76C20.25,38.9,5,29.44,0,18.51,10.84,11.91,26.58,7.45,39.2,10a64.51,64.51,0,0,1,18.35,6.79c1.1.61,2.19,1.24,3.26,1.92-.13.2-.25.39-.36.59a9.43,9.43,0,0,0-1.12,3.34,8.26,8.26,0,0,0-.09,1q0,.3,0,.6a11.45,11.45,0,0,0,1.3,4.95C60.69,29.43,60.85,29.72,61,30Z" />
    <path
      d="M85.36,30c8.31,4.87,19.1,12.05,29.17,10.76,11.61-1.87,26.88-11.33,31.86-22.26-10.84-6.6-26.58-11.06-39.2-8.56a64.39,64.39,0,0,0-18.35,6.79c-1.11.61-2.19,1.24-3.26,1.92.13.2.25.39.36.59a9.43,9.43,0,0,1,1.12,3.34,8.26,8.26,0,0,1,.09,1q0,.3,0,.6a11.59,11.59,0,0,1-1.3,4.95C85.7,29.43,85.54,29.72,85.36,30Z" />
    <path
      d="M102.86,51.21l-1.43-3.08a11.4,11.4,0,0,0-4.78-6c-.77-.37-10.76-5.41-11.85-6,11,17,4,40.36-9.31,54.05a9.09,9.09,0,0,0-2.74,3.27,10.55,10.55,0,0,0,.8,6,.42.42,0,0,1-.17.51c-1,0-1.17-1.66-1.6-2.39A7.91,7.91,0,0,1,71.71,91C57.82,77.45,50.41,53.47,61.59,36.19c-1,.52-11.12,5.6-11.85,6a11.31,11.31,0,0,0-4.78,6l-1.44,3.08a.52.52,0,0,1-1-.41c1.72-4.81,2.82-8.73,7.8-11.14l11.72-6.73.19-.07a11.18,11.18,0,0,0,2.61-1.62c-4.3-4.14-5.29-11,1.58-14.62-2.24-3.06-1.11-6.78,1.89-8.81a.06.06,0,0,0,0,0A5.09,5.09,0,0,0,66.24,4l-1-.62c-1.78-1.07-3.58-2.08-5.43-3C59.58.3,59.76-.07,60,0c2.18.87,4.34,1.83,6.44,2.89A6.14,6.14,0,0,1,69.75,7a8.85,8.85,0,0,1,6.87.06A6.19,6.19,0,0,1,80,2.9C82.06,1.84,84.2.88,86.39,0a.22.22,0,0,1,.17.41c-1.84.92-3.67,1.93-5.43,3l-1,.62A5.06,5.06,0,0,0,78,7.77c0,.05,0,.09,0,.13a6.3,6.3,0,0,1,1.87,8.71c6.91,3.64,5.92,10.48,1.61,14.63a10.92,10.92,0,0,0,2.61,1.61h0l.19.08h0L96,39.66c5,2.38,6.11,6.34,7.8,11.14A.52.52,0,0,1,102.86,51.21Z" />

  </g>
</svg>
